# xmcd
# 
# Track frame offsets:
#     150
#     15558
#     29230
#     43180
#     57490
#     69850
#     83858
#     97858
#     109333
#     120868
#     137105
#     152385
#     167288
#     189998
#     209498
#     226180
#     242240
#     258670
#     272130
# 
# Disc length: 3859
# 
# Revision: 1
# Processed by: cddbd v1.5.2PL0 Copyright (c) Steve Scherf et al.
# Submitted via: BonkEnc v1.0.15
# 
DISCID=fe0f1113
DTITLE=Mike Brant - COMPACT D'OR
DYEAR=0
DGENRE=Chanson
TTITLE0=Laisse moi t'aimer
TTITLE1=Sans ami
TTITLE2=La fille a aimer
TTITLE3=Et je suis heureux
TTITLE4=She's my life
TTITLE5=c'est ma priere
TTITLE6=L'amour c'est ça,l'amour c'est toi
TTITLE7=M.schubert I love you
TTITLE8=Felicita
TTITLE9=Un grand bohneur
TTITLE10=Qui saura
TTITLE11=La musique au fond du coeur
TTITLE12=Holly-holly
TTITLE13=My way
TTITLE14=Mais dans la lumiere
TTITLE15=Toi,moi,nous
TTITLE16=Tout donne,tout repris
TTITLE17=Au pays de ma maison
TTITLE18=Summertime
EXTD=
EXTT0=
EXTT1=
EXTT2=
EXTT3=
EXTT4=
EXTT5=
EXTT6=
EXTT7=
EXTT8=
EXTT9=
EXTT10=
EXTT11=
EXTT12=
EXTT13=
EXTT14=
EXTT15=
EXTT16=
EXTT17=
EXTT18=
PLAYORDER=
